<?xml version="1.0" encoding="UTF-8" standalone="no"?>
<!-- Created with Inkscape (http://www.inkscape.org/) -->

<svg
   xmlns:dc="http://purl.org/dc/elements/1.1/"
   xmlns:cc="http://creativecommons.org/ns#"
   xmlns:rdf="http://www.w3.org/1999/02/22-rdf-syntax-ns#"
   xmlns:svg="http://www.w3.org/2000/svg"
   xmlns="http://www.w3.org/2000/svg"
   xmlns:sodipodi="http://sodipodi.sourceforge.net/DTD/sodipodi-0.dtd"
   xmlns:inkscape="http://www.inkscape.org/namespaces/inkscape"
   width="66"
   height="66"
   viewBox="0 0 66 66"
   version="1.1"
   id="svg8"
   inkscape:version="0.92.4 (5da689c313, 2019-01-14)"
   sodipodi:docname="keepbelow.svg">
  <defs
     id="defs2" />
  <sodipodi:namedview
     id="base"
     pagecolor="#ffffff"
     bordercolor="#666666"
     borderopacity="1.0"
     inkscape:pageopacity="0.0"
     inkscape:pageshadow="2"
     inkscape:zoom="11.166667"
     inkscape:cx="34.52508"
     inkscape:cy="36.803567"
     inkscape:document-units="px"
     inkscape:current-layer="layer1"
     showgrid="false"
     units="px"
     inkscape:pagecheckerboard="true"
     inkscape:showpageshadow="false"
     inkscape:snap-bbox="true" />
  <metadata
     id="metadata5">
    <rdf:RDF>
      <cc:Work
         rdf:about="">
        <dc:format>image/svg+xml</dc:format>
        <dc:type
           rdf:resource="http://purl.org/dc/dcmitype/StillImage" />
        <dc:title></dc:title>
      </cc:Work>
    </rdf:RDF>
  </metadata>
  <g
     inkscape:label="Layer 1"
     inkscape:groupmode="layer"
     id="layer1"
     transform="translate(0,-279.53749)">
    <g
       id="active-center"
       transform="matrix(1,0,0,-1,-1.0131679,592.01994)">
      <rect
         y="285.29492"
         x="6.4586444"
         height="22"
         width="22"
         id="rect842"
         style="opacity:0.85;fill:none;fill-opacity:0.27868856;stroke:none;stroke-width:1.50557697;stroke-opacity:1" />
      <path
         transform="matrix(0.98993564,0,0,1.1614883,0.56307715,-48.833094)"
         inkscape:transform-center-y="-1.4615825"
         d="m 21.426461,300.90123 c -0.04359,0.0755 -4.27194,0 -4.359122,0 -0.08718,0 -4.315531,0.0755 -4.359123,0 -0.04359,-0.0755 2.13597,-3.69961 2.179562,-3.77511 0.04359,-0.0755 2.092379,-3.77511 2.179561,-3.77511 0.08718,0 2.13597,3.69961 2.179561,3.77511 0.04359,0.0755 2.223153,3.69961 2.179561,3.77511 z"
         inkscape:randomized="0"
         inkscape:rounded="0.02"
         inkscape:flatsided="false"
         sodipodi:arg2="1.5707963"
         sodipodi:arg1="0.52359878"
         sodipodi:r2="2.5167406"
         sodipodi:r1="5.0334811"
         sodipodi:cy="298.38449"
         sodipodi:cx="17.067339"
         sodipodi:sides="3"
         id="path890"
         style="opacity:1;fill:none;fill-opacity:0.27868856;fill-rule:evenodd;stroke:#eaeaea;stroke-width:1.6569047;stroke-miterlimit:4;stroke-dasharray:none;stroke-opacity:1"
         sodipodi:type="star" />
    </g>
    <g
       transform="matrix(1,0,0,-1,20.986833,592.01994)"
       id="inactive-center">
      <rect
         style="opacity:0.85;fill:none;fill-opacity:0.27868856;stroke:none;stroke-width:1.50557697;stroke-opacity:1"
         id="rect832"
         width="22"
         height="22"
         x="6.4586444"
         y="285.29492" />
      <path
         sodipodi:type="star"
         style="opacity:1;fill:none;fill-opacity:0.27868856;fill-rule:evenodd;stroke:#cccccc;stroke-width:1.6569047;stroke-miterlimit:4;stroke-dasharray:none;stroke-opacity:1"
         id="path834"
         sodipodi:sides="3"
         sodipodi:cx="17.067339"
         sodipodi:cy="298.38449"
         sodipodi:r1="5.0334811"
         sodipodi:r2="2.5167406"
         sodipodi:arg1="0.52359878"
         sodipodi:arg2="1.5707963"
         inkscape:flatsided="false"
         inkscape:rounded="0.02"
         inkscape:randomized="0"
         d="m 21.426461,300.90123 c -0.04359,0.0755 -4.27194,0 -4.359122,0 -0.08718,0 -4.315531,0.0755 -4.359123,0 -0.04359,-0.0755 2.13597,-3.69961 2.179562,-3.77511 0.04359,-0.0755 2.092379,-3.77511 2.179561,-3.77511 0.08718,0 2.13597,3.69961 2.179561,3.77511 0.04359,0.0755 2.223153,3.69961 2.179561,3.77511 z"
         inkscape:transform-center-y="-1.4615825"
         transform="matrix(0.98993564,0,0,1.1614883,0.56307715,-48.833094)" />
    </g>
    <g
       transform="matrix(1,0,0,-1,-1.0131679,614.01994)"
       id="g861">
      <rect
         style="opacity:0.85;fill:none;fill-opacity:0.27868856;stroke:none;stroke-width:1.50557697;stroke-opacity:1"
         id="rect838"
         width="22"
         height="22"
         x="6.4586444"
         y="285.29492" />
      <path
         sodipodi:type="star"
         style="opacity:1;fill:none;fill-opacity:0.27868856;fill-rule:evenodd;stroke:#ffffff;stroke-width:2.23820758;stroke-miterlimit:4;stroke-dasharray:none;stroke-opacity:1"
         id="path840"
         sodipodi:sides="3"
         sodipodi:cx="17.067339"
         sodipodi:cy="298.38449"
         sodipodi:r1="5.0334811"
         sodipodi:r2="2.5167406"
         sodipodi:arg1="0.52359878"
         sodipodi:arg2="1.5707963"
         inkscape:flatsided="false"
         inkscape:rounded="0.02"
         inkscape:randomized="0"
         d="m 21.426461,300.90123 c -0.04359,0.0755 -4.27194,0 -4.359122,0 -0.08718,0 -4.315531,0.0755 -4.359123,0 -0.04359,-0.0755 2.13597,-3.69961 2.179562,-3.77511 0.04359,-0.0755 2.092379,-3.77511 2.179561,-3.77511 0.08718,0 2.13597,3.69961 2.179561,3.77511 0.04359,0.0755 2.223153,3.69961 2.179561,3.77511 z"
         inkscape:transform-center-y="-1.4615825"
         transform="matrix(0.98993564,0,0,1.1614883,0.56307715,-48.833094)" />
    </g>
    <g
       id="pressed-center"
       transform="matrix(1,0,0,-1,0,635.45001)">
      <rect
         style="opacity:0.85;fill:none;fill-opacity:0.07650272;stroke:none;stroke-width:1.50557697;stroke-opacity:1"
         id="rect846"
         width="22"
         height="22"
         x="27.445477"
         y="306.72501" />
      <path
         sodipodi:type="star"
         style="opacity:1;fill:none;fill-opacity:0.27868856;fill-rule:evenodd;stroke:#f7f7f7;stroke-width:1.6569047;stroke-miterlimit:4;stroke-dasharray:none;stroke-opacity:1"
         id="path848"
         sodipodi:sides="3"
         sodipodi:cx="17.067339"
         sodipodi:cy="298.38449"
         sodipodi:r1="5.0334811"
         sodipodi:r2="2.5167406"
         sodipodi:arg1="0.52359878"
         sodipodi:arg2="1.5707963"
         inkscape:flatsided="false"
         inkscape:rounded="0.02"
         inkscape:randomized="0"
         d="m 21.426461,300.90123 c -0.04359,0.0755 -4.27194,0 -4.359122,0 -0.08718,0 -4.315531,0.0755 -4.359123,0 -0.04359,-0.0755 2.13597,-3.69961 2.179562,-3.77511 0.04359,-0.0755 2.092379,-3.77511 2.179561,-3.77511 0.08718,0 2.13597,3.69961 2.179561,3.77511 0.04359,0.0755 2.223153,3.69961 2.179561,3.77511 z"
         inkscape:transform-center-y="-1.4615825"
         transform="matrix(0.98993564,0,0,1.1614883,21.54991,-26.902995)" />
      <rect
         ry="0.95999998"
         rx="0.956164"
         y="311.90298"
         x="33.309208"
         height="1.7014924"
         width="10.02985"
         id="rect854"
         style="opacity:1;fill:#fefefe;fill-opacity:1;fill-rule:evenodd;stroke:none;stroke-width:0.95999998;stroke-miterlimit:4;stroke-dasharray:none;stroke-opacity:1" />
    </g>
  </g>
</svg>
